<?xml version="1.0" standalone="no"?>
<!DOCTYPE svg PUBLIC "-//W3C//DTD SVG 20010904//EN"
 "http://www.w3.org/TR/2001/REC-SVG-20010904/DTD/svg10.dtd">
<svg version="1.0" xmlns="http://www.w3.org/2000/svg"
 width="500.000000pt" height="500.000000pt" viewBox="0 0 500.000000 500.000000"
 preserveAspectRatio="xMidYMid meet">

<g transform="translate(0.000000,500.000000) scale(0.100000,-0.100000)"
fill="#000000" stroke="none">
<path d="M3273 4380 c-61 -126 -78 -240 -53 -370 6 -29 8 -55 5 -58 -4 -5 -23
2 -175 58 -179 66 -530 90 -821 56 -148 -18 -414 -94 -528 -150 -25 -13 -81
-41 -124 -62 -43 -21 -87 -47 -98 -57 -10 -10 -19 -15 -19 -12 0 6 -110 -67
-131 -87 -8 -8 -36 -30 -64 -50 -27 -20 -88 -75 -134 -121 l-84 -85 -51 24
c-74 34 -82 30 -41 -22 19 -26 35 -51 35 -56 0 -5 -27 -44 -60 -86 -32 -42
-57 -78 -55 -81 9 -8 -30 -29 -75 -41 -59 -16 -140 -50 -140 -60 0 -4 27 -10
60 -12 33 -2 62 -7 66 -10 3 -4 -6 -27 -21 -52 -15 -25 -23 -51 -19 -57 4 -7
3 -9 -3 -6 -7 5 -72 -130 -79 -163 0 -3 -6 -17 -12 -32 -23 -57 -63 -198 -57
-207 3 -5 1 -12 -4 -15 -13 -8 -41 -169 -46 -263 -2 -43 -7 -99 -10 -125 -7
-52 7 -109 32 -130 13 -10 139 -14 626 -18 l611 -5 18 -70 c51 -202 95 -577
84 -732 -2 -43 -5 -85 -6 -93 0 -13 -1 -13 -10 0 -5 8 -10 42 -10 76 0 47 -5
69 -22 94 -44 65 -52 54 -44 -64 6 -89 5 -106 -7 -106 -9 0 -24 26 -38 67 -28
76 -49 94 -49 39 0 -20 -4 -36 -10 -36 -6 0 -10 48 -10 125 0 75 -4 125 -10
125 -11 0 -16 -20 -25 -95 -12 -101 -16 -114 -32 -108 -13 5 -15 -13 -11 -140
l3 -147 -74 0 c-83 0 -212 -31 -250 -59 -23 -18 -22 -18 45 -4 54 12 123 13
324 9 824 -18 912 -19 1055 -2 168 19 307 55 386 98 32 18 57 34 55 36 -2 2
-28 -4 -57 -12 -50 -15 -179 -36 -310 -51 l-56 -6 -64 147 -63 147 -16 -34
-15 -34 -5 76 c-4 56 -10 83 -24 98 -16 17 -17 25 -7 48 7 16 110 159 229 318
l217 290 713 5 714 5 19 24 c16 19 19 40 19 115 0 89 -16 257 -27 286 -3 8 -7
31 -9 51 -2 20 -20 91 -39 157 -19 67 -35 124 -35 127 0 3 -3 4 -7 2 -5 -3 -9
6 -9 19 -3 36 -124 277 -191 379 -75 113 -165 225 -234 291 -30 28 -65 64 -79
80 -25 27 -24 27 16 -4 22 -17 47 -38 54 -47 7 -9 22 -21 33 -26 18 -10 19 -8
12 32 -9 50 -15 52 88 -35 32 -27 60 -47 62 -44 3 2 0 19 -5 38 -5 19 -9 35
-7 36 1 2 33 -24 70 -58 70 -62 73 -63 58 -11 l-9 32 64 -54 c35 -30 66 -55
69 -55 17 0 -76 122 -155 201 -82 84 -108 102 -190 142 -110 53 -188 74 -325
84 l-98 8 109 39 c144 51 148 54 133 72 -10 12 -3 14 42 15 61 1 99 11 81 23
-25 15 -8 24 93 46 103 23 131 41 82 53 -12 4 -76 9 -142 12 -135 7 -209 -7
-346 -65 l-73 -31 24 28 c14 15 87 92 164 171 76 79 136 145 133 148 -9 10
-103 -19 -177 -54 -98 -46 -226 -171 -294 -287 -25 -44 -46 -71 -46 -62 0 22
-29 491 -33 527 -2 19 -12 6 -44 -60z m-413 -514 c143 -31 216 -54 179 -55
-56 -2 -188 -43 -274 -85 -146 -72 -262 -181 -339 -318 l-29 -52 29 21 c16 12
42 35 58 52 36 38 50 39 44 6 -3 -14 -3 -25 -1 -25 3 0 35 26 71 58 55 48 64
53 59 32 -4 -14 -10 -36 -14 -49 l-6 -25 30 25 c17 13 54 44 83 69 l53 44 -5
-32 c-2 -18 0 -32 5 -32 5 0 57 25 114 55 l104 55 -26 -43 c-153 -249 -189
-479 -111 -702 l25 -70 0 79 1 79 25 -23 25 -23 0 84 1 84 29 -35 30 -34 0
107 0 108 23 -27 23 -27 34 131 c30 117 35 130 51 121 27 -14 29 -12 29 34 0
48 13 79 23 53 10 -26 27 -18 27 13 0 24 8 34 46 56 37 22 48 25 55 14 16 -27
24 -126 23 -294 0 -135 -5 -191 -22 -272 -55 -256 -176 -497 -368 -732 -65
-79 -67 -81 -110 -81 l-44 0 0 38 c-1 123 -75 256 -195 345 -105 78 -201 114
-314 116 -61 2 -166 -15 -196 -32 -11 -6 -25 -12 -31 -13 -29 -5 -132 -73
-173 -114 -48 -48 -104 -133 -104 -157 0 -7 -1 -13 -3 -13 -1 0 -23 39 -49 88
-75 140 -188 302 -291 417 -72 80 -94 109 -85 118 9 9 56 -3 189 -47 97 -32
183 -61 190 -63 7 -3 12 3 12 17 0 17 11 9 53 -41 45 -54 52 -60 55 -41 2 12
6 22 9 22 3 0 43 -23 90 -50 47 -28 87 -49 89 -47 2 2 -13 32 -34 67 -81 140
-234 253 -400 296 -40 10 -72 21 -72 24 0 3 28 16 63 29 168 65 228 94 223
107 -4 10 20 21 82 40 48 15 91 30 95 34 10 9 -148 30 -219 30 -81 0 -173 -28
-288 -86 -60 -30 -110 -53 -112 -51 -2 2 32 83 76 181 44 97 80 181 80 187 0
11 -37 -11 -105 -64 -89 -69 -145 -163 -191 -316 -3 -9 -19 8 -39 40 l-35 54
82 78 c46 43 108 98 138 121 58 45 189 136 195 136 2 0 26 13 52 28 124 73
343 150 508 181 61 11 121 22 135 25 14 2 122 3 240 1 187 -3 230 -6 330 -29z
m625 -333 l22 29 13 -46 c14 -51 16 -53 40 -31 16 14 18 12 30 -32 17 -63 20
-67 34 -48 10 13 20 0 66 -85 75 -141 74 -140 93 -105 l15 29 20 -69 c12 -39
24 -82 28 -98 10 -43 21 -40 28 8 4 25 11 45 15 45 5 0 14 -34 21 -75 7 -42
16 -78 21 -80 4 -3 14 4 22 16 14 19 16 17 33 -50 10 -38 22 -67 26 -65 4 3 8
42 8 87 l1 82 25 -40 c62 -98 142 -297 180 -446 22 -88 53 -280 54 -331 0 -17
-34 -18 -575 -18 -316 0 -575 2 -575 5 0 3 28 51 61 107 109 180 187 372 231
570 20 90 23 130 23 313 0 138 -5 230 -13 267 -7 32 -10 68 -6 80 7 22 8 21
22 -12 l14 -35 23 28z m-2332 -353 l37 -49 -58 21 c-31 12 -58 22 -60 24 -7 4
22 54 32 54 7 0 28 -22 49 -50z m-136 -106 c-3 -3 -12 -4 -19 -1 -8 3 -5 6 6
6 11 1 17 -2 13 -5z m23 -192 c-82 -85 -140 -181 -165 -278 -17 -63 -21 -229
-7 -278 8 -28 10 -26 50 58 23 49 42 93 42 98 0 6 9 8 19 5 17 -4 21 2 27 52
8 68 12 75 30 60 11 -9 22 6 57 82 l44 94 6 -123 c11 -201 43 -316 115 -409
l24 -33 -282 0 -283 0 7 88 c11 153 60 350 129 514 l32 78 105 34 c58 19 110
34 115 35 6 1 -24 -34 -65 -77z m449 -125 c72 -107 133 -226 194 -377 30 -74
57 -144 61 -155 6 -20 2 -20 -202 -17 l-209 3 -11 76 c-11 67 -10 78 3 85 13
8 10 18 -15 68 -35 68 -35 71 -15 64 19 -8 19 19 0 196 -19 174 -20 162 10
154 24 -6 25 -4 25 42 l1 49 54 -58 c30 -32 77 -90 104 -130z m543 -963 c16
-8 36 -13 44 -10 8 3 12 2 9 -4 -3 -5 11 -14 32 -20 46 -13 189 -31 206 -25 6
2 32 6 57 9 25 3 71 14 103 24 50 17 56 17 44 3 -7 -9 -74 -86 -148 -171 -74
-85 -159 -183 -188 -217 -43 -50 -57 -61 -67 -52 -11 9 -14 8 -14 0 0 -7 -4
-9 -10 -6 -5 3 -10 16 -10 28 0 35 -30 192 -61 317 -34 137 -41 169 -33 152 3
-7 19 -19 36 -28z"/>
<path d="M3110 844 c-138 -22 -394 -34 -720 -34 -332 0 -462 -11 -563 -50 -32
-12 -57 -24 -55 -25 2 -2 35 0 73 5 39 5 270 11 515 15 245 3 472 8 505 10
170 12 205 17 265 36 36 11 81 28 100 39 l35 19 -35 -1 c-19 0 -73 -6 -120
-14z"/>
</g>
</svg>
